<?xml version="1.0" standalone="no"?>
<!DOCTYPE svg PUBLIC "-//W3C//DTD SVG 20010904//EN"
 "http://www.w3.org/TR/2001/REC-SVG-20010904/DTD/svg10.dtd">
<svg version="1.0" xmlns="http://www.w3.org/2000/svg"
 width="500.000000pt" height="500.000000pt" viewBox="0 0 500.000000 500.000000"
 preserveAspectRatio="xMidYMid meet">
<metadata>
Created by potrace 1.11, written by Peter Selinger 2001-2013
</metadata>
<g transform="translate(0.000000,500.000000) scale(0.100000,-0.100000)"
fill="#000000" stroke="none">
<path d="M900 4991 c40 -7 38 -10 -10 -15 -9 0 -14 -9 -12 -21 6 -31 21 -44
53 -43 17 1 35 -4 41 -10 14 -14 42 -16 33 -3 -3 6 5 8 17 6 13 -3 73 -12 133
-20 61 -9 126 -19 146 -22 29 -4 41 -1 59 17 42 42 94 52 227 46 66 -3 129 -9
140 -12 17 -5 17 -4 -1 10 -20 16 -20 16 0 16 23 0 47 -14 43 -26 -1 -5 5 -10
14 -12 10 -2 17 3 17 12 0 9 5 16 11 16 6 0 9 -7 5 -15 -4 -12 3 -15 30 -15
21 0 33 4 29 10 -3 6 -13 10 -21 10 -8 0 -14 5 -14 10 0 13 17 13 25 0 3 -6
17 -7 31 -4 13 3 31 1 38 -5 10 -9 16 -9 21 -1 13 21 145 1 145 -22 0 -6 3 -8
7 -5 4 4 19 -5 35 -20 l29 -27 27 30 c15 17 36 36 47 42 31 17 15 19 -285 37
-151 9 -329 21 -395 26 -145 12 -729 21 -665 10z m143 -8 c-7 -2 -19 -2 -25 0
-7 3 -2 5 12 5 14 0 19 -2 13 -5z m122 -13 c3 -5 1 -10 -4 -10 -6 0 -11 5 -11
10 0 6 2 10 4 10 3 0 8 -4 11 -10z"/>
<path d="M2500 4601 l0 -379 -87 50 c-103 60 -228 122 -263 133 -14 4 -40 18
-57 32 -18 13 -70 41 -115 62 -140 64 -142 65 -343 123 -38 11 -78 24 -87 29
-10 5 -18 6 -18 2 0 -21 -210 3 -233 26 -6 6 -19 11 -28 11 -9 0 -21 6 -27 13
-8 9 -3 18 19 32 35 24 38 53 7 59 -35 8 -384 15 -407 9 -18 -5 -19 -8 -8 -32
17 -37 10 -84 -15 -100 -12 -7 -52 -22 -89 -32 -144 -40 -238 -100 -256 -165
-4 -16 -8 -58 -8 -94 0 -62 2 -68 48 -128 55 -71 89 -107 166 -174 l53 -47 -4
-63 -3 -63 240 3 c180 3 267 0 350 -12 61 -9 146 -21 190 -27 44 -7 105 -18
136 -25 31 -8 82 -14 112 -14 47 0 58 -4 75 -25 14 -18 39 -29 86 -40 36 -8
76 -19 89 -24 13 -5 39 -12 58 -15 19 -3 77 -16 129 -30 l95 -24 -3 -43 c-5
-77 -25 -82 -127 -34 -126 60 -322 135 -339 131 -26 -7 -56 15 -56 40 0 12 -6
24 -14 27 -10 4 -14 0 -11 -14 4 -20 -1 -21 -90 -22 -22 0 -114 7 -205 16
-322 32 -389 36 -529 26 -137 -10 -228 -29 -265 -54 -19 -14 -19 -15 6 -24 28
-11 42 -38 33 -63 -5 -13 1 -15 37 -11 40 4 44 2 60 -27 28 -49 23 -66 -25
-89 -24 -12 -51 -21 -59 -21 -24 0 -26 -30 -6 -65 11 -19 17 -49 16 -79 0 -36
4 -53 16 -62 9 -6 19 -25 22 -40 3 -16 9 -33 15 -40 5 -6 6 -13 3 -17 -3 -3 4
-10 15 -17 12 -6 18 -16 15 -22 -4 -7 -3 -8 4 -4 7 4 12 2 12 -3 0 -14 27 -14
32 0 2 5 11 7 22 3 12 -5 14 -9 6 -14 -8 -5 -2 -10 15 -14 16 -4 33 -2 41 5
11 9 18 9 26 1 10 -10 59 10 94 39 6 5 14 6 18 2 4 -4 9 3 13 15 6 23 18 29
27 13 10 -16 237 -5 276 14 46 21 74 38 93 54 9 7 31 11 49 10 33 -3 76 14 90
35 5 6 5 23 2 39 -4 21 -2 27 11 27 9 0 23 7 31 15 13 13 42 20 67 16 4 0 7 4
7 11 0 6 2 9 5 6 3 -3 36 5 73 17 40 14 71 19 76 14 15 -14 26 -11 20 5 -3 8
0 17 6 21 8 5 10 -7 9 -38 -2 -25 3 -52 9 -60 7 -7 10 -16 8 -18 -3 -3 -6 -34
-6 -69 -1 -36 -7 -83 -12 -105 -14 -56 -16 -97 -7 -117 6 -10 5 -18 -3 -20 -6
-2 -12 -26 -14 -52 -1 -26 -7 -53 -13 -60 -11 -13 -9 -68 4 -98 4 -9 -1 -27
-11 -43 -9 -14 -14 -28 -11 -32 4 -3 -4 -20 -16 -37 -12 -17 -23 -34 -23 -38
-1 -5 -2 -12 -3 -16 0 -5 -15 -23 -32 -40 -18 -18 -32 -42 -33 -55 0 -12 -6
-22 -12 -22 -16 0 -65 -61 -56 -69 4 -4 3 -6 -3 -5 -14 4 -87 -36 -85 -47 1
-5 -12 -13 -29 -18 -17 -5 -31 -13 -31 -17 0 -5 -11 -9 -24 -9 -13 0 -27 -7
-30 -16 -3 -8 -10 -13 -15 -9 -5 3 -13 1 -16 -5 -11 -18 -88 -63 -125 -72 -68
-18 -126 -27 -203 -32 -46 -3 -86 -11 -100 -21 -12 -8 -31 -15 -42 -15 -23 -1
81 -40 106 -40 24 0 49 -33 49 -63 0 -21 -5 -27 -21 -27 -12 0 -39 -16 -61
-36 -39 -35 -41 -35 -114 -32 -84 3 -99 -8 -23 -18 30 -4 53 -13 56 -21 3 -8
-4 -39 -16 -68 -12 -29 -30 -81 -39 -116 l-17 -64 -65 -32 c-79 -39 -87 -40
-102 -8 -14 31 -26 31 -86 1 -26 -13 -96 -43 -157 -66 -127 -50 -133 -54 -152
-97 -20 -49 -75 -121 -98 -129 -11 -3 -37 -22 -57 -42 -28 -26 -41 -33 -49
-25 -14 14 -5 43 21 73 29 34 18 35 -35 5 -42 -25 -103 -94 -133 -152 -9 -16
-12 -193 -12 -652 l0 -631 954 0 c835 0 955 2 966 15 7 8 27 15 45 15 18 0 38
-7 45 -15 10 -13 51 -15 254 -15 l241 0 -3 45 -4 45 33 -7 c19 -3 40 -12 47
-20 17 -17 26 -17 19 0 -3 8 1 14 9 14 8 0 14 -9 14 -19 0 -10 7 -18 18 -18 9
0 26 -7 36 -15 10 -8 23 -12 27 -9 5 3 9 0 9 -5 0 -7 23 -11 55 -11 44 0 53 3
49 15 -4 8 -10 13 -14 10 -4 -3 -13 2 -20 10 -7 8 -17 12 -24 9 -6 -3 -1 4 12
15 13 11 24 21 25 23 0 2 -13 18 -31 36 -25 26 -37 31 -57 26 -19 -5 -25 -2
-25 10 0 9 -7 16 -16 16 -9 0 -12 -5 -8 -12 5 -8 2 -9 -10 -5 -10 4 -36 7 -58
7 -32 0 -39 3 -34 15 3 9 0 15 -9 15 -8 0 -15 -4 -15 -10 0 -20 -18 -9 -20 13
-1 12 -4 318 -6 680 l-4 657 55 35 54 35 63 -38 c68 -42 162 -94 218 -122 92
-45 172 -80 182 -80 7 0 43 -11 79 -25 56 -22 68 -30 72 -53 18 -97 27 -156
32 -222 7 -101 26 -219 35 -225 4 -3 11 7 15 23 7 25 8 25 15 7 5 -11 9 -40 9
-65 2 -84 34 -319 44 -313 6 3 7 41 3 93 -7 84 2 231 12 200 3 -8 12 -23 20
-33 14 -15 14 -21 3 -39 -9 -15 -10 -23 -2 -31 8 -8 11 -6 11 6 0 9 5 17 10
17 13 0 34 -49 31 -72 -3 -25 33 -61 56 -55 15 4 15 5 -4 6 -29 1 -47 52 -26
74 14 13 12 19 -11 53 -19 28 -22 40 -13 44 6 4 75 3 152 -1 77 -5 146 -6 153
-4 6 2 12 -3 12 -11 0 -14 -17 -15 -146 -9 l-146 8 36 -50 c30 -42 40 -49 61
-45 15 2 32 16 40 33 22 41 37 45 20 5 l-15 -35 123 6 c67 3 132 6 145 6 12
-1 22 5 22 13 0 8 5 14 10 14 6 0 10 -6 10 -13 0 -22 36 -35 111 -42 l74 -6
-48 21 c-27 11 -56 27 -64 35 -8 8 -19 13 -24 9 -5 -3 -12 2 -15 10 -3 9 -10
14 -14 11 -4 -3 -11 2 -14 11 -3 8 -10 13 -15 10 -5 -3 -12 1 -15 10 -4 10
-13 13 -25 9 -20 -6 -71 13 -71 26 0 5 -19 13 -42 19 -154 41 -178 55 -178
106 0 26 44 64 74 64 11 0 67 -11 124 -25 57 -14 106 -25 109 -25 3 0 3 41 1
90 -3 50 -2 92 2 95 7 5 20 -90 20 -154 0 -35 2 -37 63 -59 56 -22 77 -33 158
-85 l26 -17 -13 87 c-7 48 -11 89 -10 91 4 3 162 5 223 3 15 -1 25 -9 29 -26
3 -14 12 -29 19 -33 17 -10 28 -72 12 -72 -6 0 -4 -5 6 -11 11 -7 17 -22 17
-47 0 -27 6 -41 21 -50 13 -9 19 -20 16 -32 -3 -11 1 -24 8 -30 16 -13 39 -95
32 -113 -4 -11 -22 -13 -76 -9 l-71 4 41 -78 c23 -44 64 -108 90 -143 27 -36
49 -70 49 -77 0 -6 -11 -19 -24 -28 -16 -10 -30 -35 -41 -71 -9 -31 -25 -70
-35 -88 -28 -44 -26 -59 7 -55 24 3 29 10 50 87 12 47 27 89 33 95 15 15 13
-10 -10 -89 -11 -38 -20 -76 -20 -82 0 -10 53 -13 235 -13 l235 0 0 885 c0
782 -2 884 -15 879 -8 -4 -15 -1 -15 5 0 6 -7 11 -15 11 -8 0 -15 5 -15 10 0
6 -6 10 -13 10 -8 0 -28 7 -45 16 -18 8 -36 13 -42 9 -5 -3 -10 -2 -10 3 0 10
-66 31 -110 36 -14 1 -31 6 -38 10 -9 5 -12 -5 -12 -38 0 -47 -17 -63 -27 -26
-3 10 -18 25 -33 32 -15 6 -35 26 -45 44 -22 41 -50 56 -41 22 14 -52 18 -97
9 -112 -8 -14 -14 -8 -36 32 -28 51 -35 78 -17 67 14 -8 13 -4 -12 87 -19 69
-27 84 -66 119 -53 46 -66 49 -58 12 4 -22 2 -20 -13 10 -25 53 -111 156 -175
211 l-55 46 -15 -22 c-10 -14 -27 -22 -48 -23 -18 -1 -50 -11 -71 -23 -31 -16
-51 -19 -105 -16 -37 2 -78 8 -92 14 -14 5 -54 11 -90 13 -51 3 -84 12 -155
46 -49 23 -112 47 -138 52 -27 5 -69 18 -94 29 -25 11 -51 20 -57 20 -6 0 -24
14 -40 31 -17 16 -40 32 -53 35 -13 4 -23 10 -23 14 0 5 -9 12 -20 15 -11 3
-26 12 -33 18 -28 26 -77 57 -90 57 -24 0 -34 21 -63 123 -26 95 -28 98 -53
92 -30 -6 -91 26 -91 48 0 8 -14 41 -30 73 -47 91 -130 302 -130 330 0 37 28
84 56 94 14 6 47 10 74 10 43 0 51 -4 80 -37 32 -36 69 -106 70 -130 0 -6 5
-24 11 -40 10 -26 11 -27 21 -9 17 30 28 87 15 79 -6 -3 -7 -1 -3 6 4 6 9 37
12 68 2 31 7 60 11 64 5 4 62 3 128 -2 66 -6 143 -12 170 -13 69 -4 69 -4 54
-23 -12 -14 -12 -16 1 -11 8 3 20 -2 27 -11 11 -14 12 -11 13 15 0 17 7 37 15
44 23 19 241 26 329 10 90 -16 106 -24 107 -58 0 -26 1 -26 9 -4 8 17 17 22
48 22 51 0 70 -21 52 -55 -7 -13 -17 -22 -22 -19 -11 7 -10 0 4 -31 14 -30 19
-31 36 -5 8 14 10 37 6 70 -6 46 -5 50 17 58 36 14 110 24 81 12 -23 -10 -39
-36 -28 -47 4 -4 13 3 22 15 19 28 27 28 39 0 6 -14 21 -24 38 -26 23 -3 27 0
27 22 0 14 5 26 10 26 6 0 8 -10 5 -23 -5 -20 -3 -23 27 -22 22 0 32 4 30 14
-8 36 9 51 56 50 l47 -1 -35 -13 -35 -13 43 -1 c26 -1 41 3 37 9 -3 6 -1 10 5
10 6 0 13 -6 16 -14 6 -15 34 -11 34 4 0 11 -56 33 -94 36 -101 11 -231 1
-341 -26 -60 -14 -104 -12 -190 10 -56 14 -111 20 -193 20 -113 0 -242 -16
-242 -31 0 -4 -21 -1 -47 6 -27 8 -106 20 -177 28 -84 10 -131 19 -137 28 -18
29 -9 94 19 140 35 56 56 106 82 196 11 40 25 75 30 78 6 4 8 11 5 16 -4 5 -2
9 3 9 5 0 29 24 52 54 53 67 91 84 195 91 44 2 105 11 135 20 30 8 93 18 140
21 47 3 101 10 120 14 30 8 144 15 160 10 3 -1 23 -3 45 -6 61 -8 68 -9 95
-22 48 -21 79 -58 129 -153 49 -92 109 -282 112 -354 1 -18 5 -6 11 29 10 62
5 111 -30 296 -20 108 -59 188 -81 167 -11 -10 -13 -9 -9 3 3 8 -4 27 -14 43
-17 24 -17 27 -3 27 9 0 14 4 10 10 -3 5 -12 7 -20 3 -8 -3 -15 0 -15 6 0 6 5
11 11 11 6 0 9 6 6 13 -2 6 -13 11 -23 9 -14 -2 -15 0 -6 6 11 7 8 17 -12 47
-14 21 -26 33 -26 27 0 -6 -7 -9 -16 -5 -8 3 -13 12 -10 19 10 25 -89 100
-181 136 -136 54 -213 70 -343 69 l-115 0 3 240 3 239 -455 0 -456 0 0 -379z
m-1438 -112 c38 -14 60 -30 73 -51 10 -17 27 -40 39 -52 38 -37 63 -174 35
-192 -6 -4 -8 -20 -5 -39 6 -31 5 -34 -31 -45 -21 -7 -46 -19 -55 -28 -23 -19
-91 -21 -113 -2 -10 8 -36 20 -59 25 -35 9 -41 15 -44 40 -2 17 -10 37 -17 45
-40 46 -63 190 -31 190 8 0 20 16 26 36 9 25 26 44 58 64 56 35 56 35 124 9z
m1888 -109 c0 -5 -4 -10 -10 -10 -5 0 -10 5 -10 10 0 6 5 10 10 10 6 0 10 -4
10 -10z m1070 -60 c0 -5 -2 -10 -4 -10 -3 0 -8 5 -11 10 -3 6 -1 10 4 10 6 0
11 -4 11 -10z m-1520 -1295 c0 -477 3 -725 10 -725 6 0 10 5 10 10 0 6 11 15
24 21 13 6 41 34 62 63 48 64 114 138 114 128 0 -5 -11 -19 -25 -32 -14 -13
-25 -28 -25 -33 0 -6 -10 -24 -23 -41 -39 -53 -54 -89 -39 -93 6 -3 12 -14 12
-25 0 -11 -5 -18 -12 -15 -7 2 -12 11 -10 21 2 9 -2 16 -9 16 -17 0 -59 -43
-59 -62 0 -9 -4 -18 -9 -20 -5 -1 -11 -28 -12 -58 l-3 -55 47 -25 c41 -22 49
-23 57 -10 6 8 8 24 4 35 -3 11 -6 26 -6 33 -1 6 -5 12 -10 12 -23 0 59 147
94 169 15 9 18 8 18 -9 0 -11 -4 -20 -10 -20 -5 0 -7 -6 -4 -14 3 -7 -10 -44
-28 -82 -20 -41 -35 -88 -37 -115 -2 -41 1 -49 26 -68 15 -12 54 -42 86 -68
32 -25 75 -49 95 -54 33 -7 35 -6 18 6 -10 7 -15 18 -12 23 9 14 48 2 42 -13
-3 -8 6 -15 23 -18 16 -3 31 -14 35 -23 8 -22 -1 -31 -16 -16 -17 17 -33 15
-18 -3 7 -8 9 -15 4 -15 -5 -1 9 -10 30 -22 22 -11 47 -29 55 -39 9 -10 36
-29 61 -42 29 -16 45 -30 45 -43 0 -15 6 -18 29 -16 19 2 35 -4 48 -17 10 -12
23 -21 28 -21 22 0 8 -18 -17 -23 -19 -4 -35 1 -48 13 -11 9 -29 16 -40 14
-11 -2 -43 11 -70 29 -70 45 -109 63 -194 92 -41 14 -89 36 -107 50 -41 31
-64 33 -38 3 42 -47 135 -106 186 -118 61 -15 108 -36 108 -50 0 -11 -40 -23
-57 -18 -7 2 -18 -5 -25 -15 -12 -17 -18 -14 -86 33 -41 27 -77 50 -82 50 -5
0 -29 26 -54 58 -89 114 -121 150 -148 166 -15 9 -29 13 -32 8 -6 -11 5 -92
13 -90 3 1 30 -20 60 -48 30 -27 71 -63 90 -81 20 -17 33 -34 30 -37 -6 -7
-110 24 -119 34 -3 3 -21 11 -40 16 -33 9 -35 13 -40 58 l-5 48 -77 24 c-68
22 -79 28 -84 52 -3 15 -10 37 -15 50 -5 13 -9 36 -9 52 0 22 5 30 23 33 16 3
14 5 -9 6 -48 2 -70 27 -109 126 -36 91 -58 125 -80 125 -15 0 -25 22 -25 57
0 15 -3 23 -7 20 -11 -12 -12 -61 -1 -74 8 -10 6 -13 -6 -13 -9 0 -18 -12 -22
-27 -4 -16 -15 -39 -26 -52 -10 -13 -18 -29 -18 -36 0 -6 -9 -20 -20 -30 -10
-9 -19 -20 -18 -24 2 -12 -14 -41 -23 -41 -5 0 -40 -26 -78 -58 -81 -68 -252
-176 -312 -197 -65 -23 -140 -15 -161 18 -5 8 -8 6 -8 -5 0 -10 -5 -18 -11
-18 -5 0 -8 4 -4 9 3 5 1 12 -4 16 -6 3 -8 11 -5 18 2 7 -8 20 -23 30 -16 10
-20 16 -10 13 12 -4 17 0 17 13 0 25 105 131 129 131 24 0 88 27 96 40 3 5 -2
10 -12 10 -15 0 -14 4 7 20 18 13 28 16 37 8 16 -13 47 -2 37 14 -5 7 -2 9 8
6 9 -4 27 9 49 38 19 24 40 43 47 44 6 0 12 5 12 10 0 6 5 10 11 10 6 0 22 14
36 31 15 17 37 35 50 40 12 5 23 15 23 24 0 8 4 15 8 15 5 0 17 18 28 40 10
22 22 40 27 40 4 0 7 6 7 13 1 26 47 69 70 65 19 -2 26 -14 40 -62 20 -72 26
-62 40 67 11 93 41 174 97 256 22 32 40 97 30 107 -2 3 -20 -4 -38 -15 -40
-25 -91 -27 -110 -5 -10 13 -10 29 0 91 7 42 9 78 4 82 -11 8 -17 45 -6 38 4
-3 9 12 10 34 3 54 10 84 22 107 6 12 11 29 11 40 0 11 6 22 14 25 8 3 17 19
21 36 4 17 14 35 23 40 19 10 92 23 139 25 29 1 36 7 57 51 24 50 39 111 52
215 6 51 26 90 46 90 4 0 8 -326 8 -725z m460 695 c0 -5 -5 -10 -11 -10 -5 0
-7 5 -4 10 3 6 8 10 11 10 2 0 4 -4 4 -10z m1240 -310 c0 -5 -2 -10 -4 -10 -3
0 -8 5 -11 10 -3 6 -1 10 4 10 6 0 11 -4 11 -10z m-1274 -47 c-10 -10 -19 5
-10 18 6 11 8 11 12 0 2 -7 1 -15 -2 -18z m-1482 -14 c-3 -5 -10 -7 -15 -3 -5
3 -7 10 -3 15 3 5 10 7 15 3 5 -3 7 -10 3 -15z m1589 -882 c20 -31 37 -61 37
-66 0 -5 6 -16 13 -23 6 -7 30 -37 52 -66 22 -29 49 -55 61 -58 12 -3 27 -17
35 -30 7 -14 40 -38 76 -56 35 -17 66 -35 69 -40 3 -4 13 -8 23 -8 30 0 99
-51 94 -70 -3 -10 6 -25 21 -38 14 -11 26 -26 26 -33 0 -8 17 -21 38 -30 36
-15 77 -14 192 5 20 3 29 2 22 -3 -11 -6 -9 -9 6 -13 15 -4 18 -1 14 18 -3 18
1 24 22 30 25 6 36 24 41 70 1 14 10 33 19 43 9 9 16 24 16 33 0 8 9 27 20 41
11 14 20 32 20 40 0 14 27 44 34 36 1 -2 11 -31 21 -64 10 -33 33 -87 51 -120
56 -106 59 -125 29 -193 l-27 -59 21 -39 c35 -65 30 -75 -31 -69 -29 3 -73 2
-98 -4 -45 -9 -45 -9 25 -10 104 0 120 -4 119 -24 -2 -15 11 -17 121 -17 l124
0 5 -52 c9 -82 26 -329 26 -368 0 -19 1 -46 2 -60 l3 -25 -164 -2 c-177 -3
-193 1 -191 46 5 65 -1 152 -9 147 -11 -7 -21 266 -10 278 4 5 3 17 -3 26 -10
16 -13 16 -26 3 -8 -8 -18 -11 -21 -6 -5 8 -27 10 -33 3 -2 -1 -18 -3 -36 -5
-27 -2 -32 0 -27 13 5 14 4 14 -12 1 -10 -8 -30 -15 -45 -14 -15 0 -25 -2 -23
-5 3 -6 -120 -14 -195 -13 -14 0 -48 15 -75 34 -28 19 -90 57 -140 83 -49 26
-170 93 -268 149 l-178 100 -39 84 c-63 135 -66 147 -46 178 34 52 64 152 81
270 10 66 20 124 22 129 3 4 18 -21 32 -55 15 -35 44 -90 64 -122z m-261 -348
c-19 -7 -32 -3 -32 11 0 13 34 17 42 5 4 -5 0 -13 -10 -16z m-28 -15 c9 -9 24
-13 35 -9 14 4 20 0 23 -20 3 -14 1 -25 -5 -25 -5 0 2 -9 17 -21 14 -11 23
-25 20 -31 -4 -6 -16 1 -31 16 -13 14 -30 26 -38 26 -17 0 -67 59 -59 71 8 13
20 11 38 -7z m106 -64 c0 -5 -5 -10 -11 -10 -5 0 -7 5 -4 10 3 6 8 10 11 10 2
0 4 -4 4 -10z m-2180 -371 c0 -31 -54 -79 -90 -79 -20 0 -9 33 21 61 31 29 69
39 69 18z m1865 -19 c10 -11 24 -20 32 -20 23 0 14 -18 -27 -50 l-40 -32 0 61
c0 65 6 73 35 41z m-1005 -44 c0 -8 10 -16 22 -18 18 -2 22 -10 25 -48 1 -25
-2 -54 -6 -65 -5 -11 -12 -28 -15 -37 -3 -10 -14 -18 -25 -18 -11 0 -24 -8
-30 -17 -8 -14 -13 -15 -35 -5 -14 6 -33 9 -41 6 -8 -4 -15 -1 -15 5 0 6 -11
16 -25 21 -43 16 -26 70 22 70 13 0 23 5 23 10 0 6 -11 10 -24 10 -15 0 -27 7
-31 19 -10 31 5 51 39 51 17 0 40 7 50 15 25 19 66 19 66 1z m2414 -58 c12
-156 15 -292 7 -278 -5 8 -12 77 -15 153 -4 76 -10 145 -13 154 -7 17 -49 16
-313 -7 -63 -5 -123 -10 -132 -10 -16 0 -18 -12 -19 -107 -1 -159 -15 -170
-22 -18 -4 71 -4 131 -1 134 3 3 19 6 37 8 234 18 434 36 459 42 3 0 9 -32 12
-71z m39 -168 c3 -105 2 -161 -3 -140 -5 19 -11 113 -14 210 -3 106 -2 161 3
140 5 -19 11 -114 14 -210z m-560 190 c-6 -22 -11 -24 -33 -10 -13 9 -13 11 0
20 24 16 39 12 33 -10z m-2374 -19 c8 -14 6 -33 -4 -68 -8 -26 -15 -58 -15
-71 0 -32 -28 -82 -45 -82 -30 0 -48 85 -30 140 9 29 63 100 75 100 5 0 14 -9
19 -19z m2209 -68 c28 -71 65 -448 53 -538 -9 -74 -19 -36 -31 123 -18 255
-29 349 -40 372 -17 35 -20 70 -6 70 7 0 18 -12 24 -27z m469 -15 c-3 -7 -5
-2 -5 12 0 14 2 19 5 13 2 -7 2 -19 0 -25z m-120 0 c-3 -8 -6 -5 -6 6 -1 11 2
17 5 13 3 -3 4 -12 1 -19z m323 -38 c0 -10 -4 -21 -8 -24 -5 -3 -58 -8 -118
-11 -60 -4 -114 -7 -119 -7 -6 -1 -12 -11 -13 -22 -1 -14 1 -17 7 -8 5 8 36
15 79 18 61 4 72 3 72 -10 0 -12 -11 -16 -40 -18 -22 -1 -52 -2 -67 -3 -163
-12 -218 -17 -226 -22 -6 -4 -8 5 -5 20 3 16 0 28 -8 31 -15 6 -19 42 -6 49 7
5 134 13 331 23 52 2 97 6 99 9 9 9 22 -6 22 -25z m-10 -44 c0 -23 -17 -36
-46 -36 -27 0 -34 4 -34 20 0 17 7 20 40 20 22 0 40 -2 40 -4z m-490 -122 c0
-14 -9 -37 -20 -51 l-19 -25 -5 24 c-15 75 -15 78 15 78 25 0 29 -4 29 -26z
m-2186 0 c14 -36 5 -73 -23 -102 -37 -36 -67 -45 -87 -25 -13 13 -13 18 -1 37
8 11 20 32 28 46 30 53 71 75 83 44z m2746 -118 c-7 -7 -10 1 -9 25 0 32 1 33
10 10 6 -16 6 -28 -1 -35z m-134 4 c8 0 14 7 14 15 0 8 5 15 10 15 6 0 10 -7
10 -15 0 -8 7 -15 15 -15 8 0 14 5 13 11 -2 6 3 14 11 17 10 3 12 0 8 -12 -4
-9 -2 -16 3 -16 5 0 10 8 12 18 2 10 6 13 10 7 17 -28 -10 -37 -118 -38 -96
-2 -109 0 -112 16 -2 9 1 17 7 17 6 0 11 -7 11 -15 0 -8 5 -15 10 -15 6 0 10
7 10 15 0 8 7 15 15 15 8 0 15 -4 15 -9 0 -5 7 -12 16 -15 8 -3 12 -2 9 4 -3
6 -3 16 2 23 5 9 8 7 11 -5 2 -10 10 -18 18 -18z m-389 14 c-3 -4 -1 -16 5
-27 l11 -21 8 22 c9 25 29 30 29 7 0 -8 5 -15 10 -15 6 0 10 7 10 16 0 9 6 14
13 11 6 -2 11 -10 10 -16 -2 -6 4 -11 12 -11 8 0 15 7 15 15 0 8 5 15 10 15 6
0 10 -8 10 -17 0 -14 4 -13 21 6 25 26 36 22 18 -7 -20 -31 -184 -46 -195 -17
-7 17 1 45 12 45 4 0 4 -3 1 -6z m233 -14 c0 -5 -4 -10 -10 -10 -5 0 -10 5
-10 10 0 6 5 10 10 10 6 0 10 -4 10 -10z m708 -72 c10 -24 25 -60 31 -80 12
-37 14 -38 59 -38 26 0 80 -5 121 -10 70 -9 76 -12 117 -55 42 -45 46 -56 60
-145 3 -25 10 -49 14 -55 10 -14 34 -174 27 -182 -4 -3 -62 0 -130 7 l-124 12
-28 102 c-34 125 -84 276 -85 257 0 -17 -13 -6 -16 13 -1 8 -18 49 -37 92 -19
44 -38 89 -42 102 -11 38 12 24 33 -20z m-947 -370 c11 -21 11 -22 -4 -9 -10
7 -17 17 -17 22 0 15 9 10 21 -13z m-2455 -303 c12 -8 27 -28 34 -44 10 -26 9
-36 -6 -67 -11 -21 -31 -46 -45 -56 -21 -16 -30 -17 -51 -8 -59 27 -63 113 -8
163 35 31 47 33 76 12z m3619 -181 c6 2 17 -5 23 -15 7 -10 16 -18 20 -16 11
3 112 -71 112 -83 0 -5 -11 2 -24 15 -13 13 -43 33 -67 45 -67 34 -99 60 -98
78 0 13 3 11 11 -6 6 -13 17 -21 23 -18z"/>
<path d="M940 4452 c-49 -55 -59 -78 -50 -118 5 -21 18 -57 30 -79 11 -21 20
-44 20 -50 0 -7 25 -12 68 -13 67 -1 67 -1 90 35 31 49 28 133 -5 148 -13 5
-23 15 -23 21 0 6 -7 18 -17 25 -15 13 -16 11 -11 -13 3 -16 2 -28 -3 -28 -14
0 -39 31 -39 50 0 11 -9 24 -19 30 -24 12 -22 12 -41 -8z"/>
<path d="M2318 3343 c-33 -9 -18 -21 25 -19 33 1 47 -4 64 -24 17 -19 22 -21
23 -9 0 35 -66 66 -112 52z"/>
<path d="M2206 3217 c-16 -12 -16 -13 1 -29 10 -8 30 -18 46 -22 23 -6 27 -3
27 17 0 43 -38 60 -74 34z"/>
<path d="M2504 2039 c3 -17 6 -35 6 -39 0 -4 22 -17 49 -29 27 -11 71 -37 98
-58 80 -62 183 -103 183 -74 0 5 -24 25 -52 44 -29 19 -66 47 -83 62 -57 50
-177 125 -201 125 -4 0 -4 -14 0 -31z"/>
<path d="M3805 1915 c-38 -17 -33 -17 35 0 40 10 47 13 25 14 -16 0 -43 -6
-60 -14z"/>
<path d="M3830 1690 c0 -5 7 -7 15 -4 8 4 15 8 15 10 0 2 -7 4 -15 4 -8 0 -15
-4 -15 -10z"/>
<path d="M3866 1683 c-6 -14 -5 -15 5 -6 7 7 10 15 7 18 -3 3 -9 -2 -12 -12z"/>
<path d="M3670 1681 c0 -10 138 -6 148 4 3 3 -29 5 -71 5 -42 0 -77 -4 -77 -9z"/>
<path d="M3595 1380 c-16 -6 -17 -7 -2 -13 16 -6 55 -2 64 6 7 8 -43 14 -62 7z"/>
<path d="M3406 1261 c-4 -7 -5 -15 -2 -18 9 -9 19 4 14 18 -4 11 -6 11 -12 0z"/>
<path d="M4550 910 c0 -5 7 -10 15 -10 8 0 18 0 22 -1 4 0 9 4 11 10 2 6 -8
11 -22 11 -14 0 -26 -4 -26 -10z"/>
<path d="M4690 764 c0 -16 35 -54 50 -54 14 0 37 39 27 46 -6 4 -77 12 -77 8z"/>
<path d="M2008 4893 c7 -3 16 -2 19 1 4 3 -2 6 -13 5 -11 0 -14 -3 -6 -6z"/>
<path d="M1515 4757 c-6 -19 0 -50 14 -76 10 -19 19 -22 44 -18 18 2 55 1 82
-4 28 -5 61 -12 75 -14 38 -7 213 -7 231 0 9 3 21 17 28 31 6 13 23 29 37 34
15 6 25 12 23 15 -6 6 -305 33 -427 38 -73 4 -104 2 -107 -6z"/>
<path d="M635 3830 c-3 -5 1 -10 9 -10 9 0 16 5 16 10 0 6 -4 10 -9 10 -6 0
-13 -4 -16 -10z"/>
<path d="M2131 3662 c-19 -3 -14 -9 34 -34 59 -31 80 -28 73 8 -3 20 -58 33
-107 26z"/>
<path d="M4047 3615 c-36 -18 -73 -45 -64 -45 4 0 3 -9 -4 -21 -21 -40 4 -43
74 -10 36 17 69 31 75 31 16 0 30 24 23 40 -8 20 -70 23 -104 5z"/>
<path d="M3526 3601 c-3 -5 4 -11 17 -15 35 -9 47 -7 47 9 0 16 -55 22 -64 6z"/>
<path d="M3505 3409 c-120 -19 -140 -25 -143 -42 -5 -25 42 -22 103 8 l50 25
6 -31 c4 -16 9 -32 12 -35 3 -3 30 -3 61 1 48 6 56 10 56 29 0 11 -4 26 -8 32
-10 16 -79 22 -137 13z m-95 -39 c0 -5 -4 -10 -10 -10 -5 0 -10 5 -10 10 0 6
5 10 10 10 6 0 10 -4 10 -10z"/>
<path d="M2672 3352 c-20 -15 -21 -20 -9 -30 9 -8 24 -9 44 -3 22 6 39 5 57
-4 34 -18 33 -1 0 30 -32 29 -60 31 -92 7z"/>
<path d="M3743 3303 c-10 -20 -10 -30 -1 -40 14 -17 18 -13 28 31 10 44 -9 50
-27 9z"/>
<path d="M4076 3316 c3 -8 12 -12 20 -9 21 8 17 23 -6 23 -13 0 -18 -5 -14
-14z"/>
<path d="M3575 3301 c-22 -11 -34 -20 -27 -20 14 -1 72 27 72 34 0 7 0 7 -45
-14z"/>
<path d="M3785 3290 c-4 -12 -5 -24 -2 -27 3 -2 8 5 12 17 4 12 5 24 2 27 -3
2 -8 -5 -12 -17z"/>
<path d="M2795 3261 c-10 -17 2 -58 20 -65 19 -7 19 20 1 53 -9 16 -15 20 -21
12z"/>
<path d="M1116 3065 c4 -8 8 -15 10 -15 2 0 4 7 4 15 0 8 -4 15 -10 15 -5 0
-7 -7 -4 -15z"/>
<path d="M1130 3036 c0 -2 11 -6 25 -8 14 -3 25 -1 25 3 0 5 -11 9 -25 9 -14
0 -25 -2 -25 -4z"/>
<path d="M3945 3013 c-11 -3 -25 -9 -31 -14 -14 -11 -45 -12 -106 -3 -42 6
-51 3 -79 -20 -24 -21 -34 -24 -45 -15 -10 8 -14 8 -14 0 0 -6 11 -18 25 -27
23 -15 28 -15 64 0 35 13 44 14 73 2 18 -8 66 -14 105 -15 62 0 74 2 83 19 16
30 12 45 -19 63 -16 9 -31 16 -33 16 -1 -1 -12 -4 -23 -6z"/>
<path d="M1206 2985 c-3 -8 -1 -15 4 -15 15 0 12 -26 -5 -40 -8 -7 -12 -16 -9
-21 12 -20 -25 -7 -38 14 -12 17 -25 22 -62 22 -26 0 -50 -5 -54 -11 -8 -14
-60 -15 -68 -3 -10 17 -69 10 -81 -9 -11 -19 -7 -68 7 -77 4 -3 27 -7 51 -9
34 -3 46 1 59 17 14 17 28 20 79 20 34 0 65 -3 68 -7 15 -14 42 -4 77 30 36
34 36 37 20 55 -9 10 -14 19 -9 19 4 0 2 7 -5 15 -7 8 -16 15 -20 15 -4 0 -10
-7 -14 -15z"/>
<path d="M3926 2793 c-4 -5 -38 -8 -74 -9 -54 0 -80 -6 -133 -32 -36 -18 -71
-32 -76 -32 -6 0 -16 -6 -22 -14 -10 -11 5 -14 91 -15 57 0 119 -2 138 -3 19
-1 49 2 66 6 19 4 40 2 58 -7 19 -10 38 -12 63 -6 21 4 41 6 45 3 4 -3 8 4 8
15 0 12 -7 21 -15 21 -8 0 -22 11 -30 24 -25 38 -99 68 -119 49z"/>
<path d="M886 2690 c-54 -53 -63 -94 -21 -104 23 -6 27 -13 29 -59 1 -10 7
-22 15 -26 7 -5 12 -12 12 -16 -1 -7 48 -18 74 -16 77 5 132 32 132 66 0 8 -3
13 -6 11 -9 -6 -31 21 -23 28 3 4 -4 9 -16 13 -38 10 -14 21 47 22 108 0 181
31 139 58 -7 4 -49 21 -93 36 -60 21 -101 29 -161 30 l-82 2 -46 -45z"/>
<path d="M3954 2633 c7 -13 -71 -33 -128 -33 -47 0 -96 -11 -96 -21 0 -19 68
-43 125 -44 48 -1 69 4 102 24 55 33 88 100 35 72 -13 -7 -23 -7 -32 2 -9 8
-11 9 -6 0z"/>
<path d="M941 2276 c-12 -14 -5 -26 16 -26 15 0 18 26 4 34 -5 3 -14 0 -20 -8z"/>
<path d="M4510 1820 c0 -5 5 -10 11 -10 5 0 7 5 4 10 -3 6 -8 10 -11 10 -2 0
-4 -4 -4 -10z"/>
<path d="M4216 922 c-6 -10 11 -99 24 -120 7 -12 8 -3 4 33 -4 37 -3 46 5 35
7 -9 11 -10 11 -3 0 6 -5 15 -11 18 -6 4 -8 13 -5 20 5 14 -20 29 -28 17z"/>
<path d="M4280 830 c-9 -6 -10 -10 -3 -10 6 0 15 5 18 10 8 12 4 12 -15 0z"/>
<path d="M3292 680 c0 -19 2 -27 5 -17 2 9 2 25 0 35 -3 9 -5 1 -5 -18z"/>
<path d="M3491 646 c-9 -10 -9 -16 -1 -21 17 -10 37 12 24 25 -8 8 -15 6 -23
-4z"/>
<path d="M3512 618 c-17 -17 -15 -28 4 -28 8 0 13 4 10 9 -4 5 -1 11 6 13 8 3
8 7 2 11 -6 3 -16 1 -22 -5z"/>
<path d="M3302 595 c0 -16 2 -22 5 -12 2 9 2 23 0 30 -3 6 -5 -1 -5 -18z"/>
<path d="M3433 550 c-46 -27 -41 -34 5 -8 46 27 48 28 36 28 -5 0 -24 -9 -41
-20z"/>
<path d="M3513 531 c17 -6 17 -8 -1 -24 -11 -10 -23 -17 -28 -16 -21 4 -25 -2
-13 -18 11 -13 11 -15 1 -9 -9 5 -12 3 -11 -5 4 -19 -11 -60 -20 -55 -3 3 -7
-41 -8 -97 l-1 -102 7 85 c8 96 22 134 74 203 l37 47 -28 -1 c-21 0 -23 -2 -9
-8z"/>
<path d="M3549 497 c-14 -18 -33 -43 -41 -57 -17 -26 -35 -84 -21 -63 4 6 8
-19 7 -55 -1 -70 10 -99 30 -83 8 6 12 -1 14 -26 1 -20 10 -42 20 -50 16 -14
16 -14 0 -9 -10 3 -18 1 -18 -4 0 -6 5 -10 10 -10 6 0 10 -7 10 -15 0 -8 4
-14 9 -13 5 2 9 -1 9 -7 0 -5 -4 -9 -8 -8 -4 1 -11 -5 -14 -13 -5 -12 -2 -15
10 -10 14 5 15 4 5 -8 -10 -11 -7 -19 14 -40 22 -22 35 -26 85 -26 58 0 60 1
60 26 0 14 4 23 10 19 6 -3 10 -15 10 -26 0 -18 8 -19 153 -18 83 0 161 5 172
10 15 7 6 8 -33 6 -40 -3 -50 -1 -42 8 8 9 -5 14 -52 19 -227 25 -253 35 -233
93 16 45 90 74 210 83 l100 7 -100 1 c-109 0 -124 4 -172 40 l-32 24 2 -28 c3
-36 -20 -42 -35 -9 -9 19 -9 37 -1 65 9 36 7 44 -23 95 -38 63 -40 70 -19 61
10 -3 15 1 15 13 0 12 -9 20 -27 24 -16 3 -35 8 -43 11 -9 3 -26 -9 -41 -27z"/>
<path d="M3312 495 c0 -16 2 -22 5 -12 2 9 2 23 0 30 -3 6 -5 -1 -5 -18z"/>
<path d="M3765 470 c-3 -5 1 -11 7 -14 9 -3 7 -9 -6 -20 -21 -17 -56 -21 -56
-7 0 5 -9 11 -20 14 -25 6 -25 6 1 -38 l22 -36 23 22 c20 18 39 23 121 27 l98
5 -65 15 c-36 8 -71 19 -79 25 -17 14 -39 18 -46 7z"/>
<path d="M3373 366 c5 -80 10 -100 28 -119 l21 -22 -6 86 c-8 102 -17 141 -36
147 -11 4 -12 -13 -7 -92z"/>
<path d="M3310 438 c0 -7 7 -76 16 -153 8 -77 17 -173 21 -213 4 -49 10 -72
19 -72 9 0 11 10 8 32 -14 107 -34 273 -39 336 -4 39 -11 75 -16 78 -5 3 -9
-1 -9 -8z"/>
<path d="M3978 423 c6 -2 18 -2 25 0 6 3 1 5 -13 5 -14 0 -19 -2 -12 -5z"/>
<path d="M3386 200 c3 -19 9 -73 13 -120 l7 -85 8 57 c9 62 3 105 -19 153
l-14 30 5 -35z"/>
<path d="M3437 179 c4 -13 8 -18 11 -10 2 7 -1 18 -6 23 -8 8 -9 4 -5 -13z"/>
<path d="M3790 95 c0 -8 7 -15 15 -15 8 0 15 4 15 9 0 5 -7 11 -15 15 -9 3
-15 0 -15 -9z"/>
<path d="M3497 49 c10 -17 24 -36 32 -42 8 -7 2 7 -14 31 -32 49 -45 57 -18
11z"/>
<path d="M4205 70 c-16 -7 -17 -9 -3 -9 9 -1 20 4 23 9 7 11 7 11 -20 0z"/>
</g>
</svg>
